<svg xmlns="http://www.w3.org/2000/svg" xmlns:xlink="http://www.w3.org/1999/xlink" width="500" zoomAndPan="magnify" viewBox="0 0 375 374.999991" height="500" preserveAspectRatio="xMidYMid meet" version="1.0"><defs><clipPath id="b36810d1db"><path d="M 127.5 112.5 L 217 112.5 L 217 262.5 L 127.5 262.5 Z M 127.5 112.5 " clip-rule="nonzero"/></clipPath><clipPath id="2016423fb3"><path d="M 197 176 L 247.5 176 L 247.5 261 L 197 261 Z M 197 176 " clip-rule="nonzero"/></clipPath></defs><rect x="-37.5" width="450" fill="#ffffff" y="-37.499999" height="449.999989" fill-opacity="1"/><rect x="-37.5" width="450" fill="#ffffff" y="-37.499999" height="449.999989" fill-opacity="1"/><rect x="-37.5" width="450" fill="#ffffff" y="-37.499999" height="449.999989" fill-opacity="1"/><g clip-path="url(#b36810d1db)"><path fill="#e86aa7" d="M 144.773438 143.941406 C 143.445312 143.5 143.007812 143.054688 143.445312 141.722656 C 143.445312 140.835938 144.332031 139.949219 144.773438 139.058594 C 145.21875 138.171875 146.105469 137.285156 146.992188 135.953125 C 149.203125 133.292969 150.980469 129.742188 152.746094 126.632812 C 154.078125 124.414062 155.40625 122.199219 156.289062 119.535156 C 157.179688 117.316406 157.625 113.320312 160.277344 112.433594 C 162.9375 111.542969 165.152344 114.652344 167.367188 115.984375 C 170.46875 117.757812 172.238281 120.863281 174.011719 123.972656 C 175.785156 126.191406 177.109375 128.851562 178.882812 131.519531 C 179.328125 132.847656 179.773438 134.179688 180.210938 135.066406 C 180.921875 136.484375 181.765625 137.820312 182.542969 139.203125 C 183.429688 140.769531 183.867188 140.882812 185.617188 141.113281 C 187.449219 141.351562 189.015625 142.238281 190.679688 142.972656 C 191.84375 143.484375 192.929688 143.558594 194.113281 143.925781 C 197.378906 144.953125 200.660156 147.992188 203.25 150.15625 C 206.347656 152.820312 208.566406 155.484375 211.222656 158.589844 C 213.441406 161.25 214.324219 164.804688 215.207031 167.910156 C 215.648438 170.570312 216.09375 173.234375 216.09375 175.453125 C 216.09375 182.554688 214.765625 189.210938 213.441406 195.867188 C 212.550781 198.53125 212.105469 201.195312 211.222656 203.414062 C 210.78125 205.632812 209.449219 207.847656 208.566406 210.070312 C 205.90625 214.953125 203.25 220.277344 200.585938 225.160156 C 199.261719 227.382812 197.933594 229.597656 196.601562 231.816406 C 195.273438 234.480469 193.503906 236.699219 192.171875 239.363281 C 191.289062 240.695312 190.847656 241.582031 189.960938 242.46875 C 189.515625 243.355469 189.074219 243.800781 189.074219 244.6875 C 189.074219 246.015625 190.402344 247.351562 190.84375 248.683594 C 191.289062 250.011719 191.730469 251.34375 192.171875 252.675781 C 192.617188 254.007812 193.058594 255.339844 193.503906 256.226562 C 193.503906 257.113281 194.390625 258.890625 193.945312 259.332031 C 193.503906 260.222656 191.289062 260.664062 190.402344 261.109375 C 189.515625 261.109375 189.074219 261.109375 188.628906 261.109375 C 187.300781 261.550781 186.863281 261.996094 185.53125 261.996094 C 184.199219 261.996094 182.429688 262.4375 181.101562 262.4375 C 179.773438 262.4375 178.441406 262.882812 177.109375 262.882812 C 175.785156 262.882812 171.800781 263.328125 170.910156 262.4375 C 170.910156 261.996094 170.910156 260.664062 170.46875 260.222656 C 170.46875 259.777344 170.46875 258.890625 170.46875 258.003906 C 170.46875 257.113281 170.023438 255.78125 170.023438 254.894531 C 169.585938 250.457031 169.140625 246.464844 169.140625 242.027344 C 169.140625 237.585938 168.695312 233.59375 168.257812 229.15625 C 168.257812 227.382812 167.808594 226.046875 167.367188 224.714844 C 166.925781 222.941406 166.925781 221.613281 166.925781 219.835938 C 166.925781 218.945312 166.480469 218.503906 166.925781 217.617188 C 167.367188 216.730469 167.367188 216.285156 167.808594 215.84375 C 168.695312 213.621094 170.023438 211.84375 170.910156 210.070312 C 171.351562 208.742188 171.351562 207.847656 171.800781 206.960938 C 172.242188 206.074219 173.125 205.1875 173.566406 204.300781 C 174.015625 203.414062 174.015625 202.527344 174.453125 202.085938 C 174.898438 201.195312 175.34375 200.304688 175.34375 199.417969 C 172.683594 202.085938 170.023438 204.746094 168.257812 207.847656 C 166.480469 210.074219 164.710938 212.289062 163.382812 214.507812 C 162.9375 215.84375 162.050781 217.617188 161.613281 218.945312 C 160.277344 217.171875 159.394531 215.398438 158.507812 213.621094 C 156.738281 211.84375 155.410156 209.628906 154.078125 207.847656 C 151.863281 204.300781 150.535156 200.75 147.875 197.644531 C 147.4375 199.417969 148.761719 202.527344 149.203125 204.300781 C 150.089844 206.960938 150.980469 209.183594 151.863281 211.847656 C 153.195312 214.953125 155.410156 217.171875 157.179688 219.835938 C 157.625 220.722656 158.953125 221.613281 158.953125 222.050781 C 158.953125 222.941406 158.953125 223.828125 158.953125 224.273438 C 158.507812 225.605469 158.507812 227.382812 158.507812 228.710938 C 158.0625 231.371094 157.625 234.035156 157.179688 236.699219 C 157.179688 238.027344 157.179688 239.363281 157.179688 240.25 C 157.179688 242.027344 156.738281 243.355469 156.738281 245.128906 C 156.738281 246.464844 156.289062 246.910156 157.625 247.796875 C 158.953125 248.238281 159.835938 249.125 161.167969 249.570312 C 162.050781 250.457031 162.050781 250.457031 162.050781 251.785156 C 162.050781 253.5625 162.5 255.78125 162.9375 257.554688 C 162.9375 258.445312 163.382812 260.667969 162.9375 261.550781 C 162.5 261.996094 161.613281 261.996094 161.167969 261.996094 C 159.394531 262.4375 157.625 262.4375 155.410156 262.882812 C 153.195312 262.882812 150.980469 262.882812 148.761719 262.4375 C 147.4375 262.4375 146.992188 261.109375 146.546875 260.222656 C 146.105469 258.890625 145.222656 257.554688 144.773438 256.226562 C 144.332031 255.339844 144.332031 254.007812 143.449219 253.121094 C 143.007812 251.347656 142.117188 250.011719 141.230469 248.683594 C 139.902344 246.015625 139.464844 243.355469 138.132812 241.140625 C 137.25 239.363281 136.359375 237.585938 135.917969 235.367188 C 135.285156 232.203125 133.769531 229.105469 133.324219 225.957031 C 132.835938 222.429688 132.4375 218.875 131.875 215.359375 C 131.410156 212.433594 130.308594 209.496094 129.714844 206.519531 C 129.269531 204.300781 129.714844 201.640625 129.269531 199.417969 C 129.269531 197.203125 128.828125 195.425781 128.386719 193.207031 C 128.386719 191.433594 128.386719 189.65625 127.945312 187.878906 C 127.945312 186.105469 127.945312 184.328125 127.5 182.554688 C 127.5 181.226562 127.5 179.449219 127.5 178.117188 C 127.5 176.785156 127.5 175.898438 127.5 174.566406 C 127.5 173.234375 127.945312 172.792969 128.386719 171.902344 C 129.269531 170.570312 130.597656 169.238281 131.488281 167.910156 C 132.375 166.578125 133.261719 164.804688 134.585938 163.46875 C 135.566406 162.492188 136.371094 161.453125 137.238281 160.382812 C 137.707031 159.789062 138.613281 158.277344 139.457031 158.25 C 139.921875 158.234375 139.738281 158.265625 139.964844 158.632812 C 140.453125 159.441406 140.703125 160.570312 141.09375 161.433594 C 141.957031 163.320312 143.28125 165.105469 144.3125 166.921875 C 145.480469 168.976562 147.058594 170.765625 148.515625 172.617188 C 149.890625 174.378906 151.011719 176.292969 152.730469 177.785156 C 153.074219 177.214844 153.855469 176.824219 154.347656 176.367188 C 155.246094 175.53125 156.289062 174.871094 157.1875 173.976562 C 158.21875 172.949219 159.207031 171.863281 160.175781 170.773438 C 162.113281 168.617188 163.992188 166.410156 166.042969 164.359375 C 166.925781 163.46875 167.808594 162.582031 169.140625 161.253906 C 169.53125 160.855469 170.042969 160.652344 170.277344 160.125 C 170.398438 159.84375 170.59375 159.351562 170.613281 159.042969 C 170.664062 158.328125 170.476562 157.542969 170.253906 156.875 C 169.699219 155.246094 169.796875 153.449219 169.546875 151.777344 C 169.257812 149.839844 168.914062 147.886719 168.578125 145.957031 C 168.40625 144.96875 168.039062 143.976562 167.816406 143.003906 C 167.648438 142.28125 167.628906 141.566406 166.957031 141.148438 C 166.292969 140.730469 165.558594 140.867188 164.828125 140.945312 C 164.011719 141.035156 163.207031 141.035156 162.386719 141.214844 C 160.644531 141.597656 158.972656 142.289062 157.367188 143.050781 C 155.410156 143.976562 153.519531 145.152344 151.894531 146.574219 C 151.308594 147.085938 150.824219 147.695312 150.152344 148.101562 C 149.722656 148.363281 149.640625 148.425781 149.320312 148.203125 C 148.90625 147.910156 148.78125 147.339844 148.460938 146.964844 C 148.117188 146.558594 147.621094 146.285156 147.257812 145.917969 C 146.652344 145.304688 145.605469 144.222656 144.773438 143.941406 Z M 144.773438 143.941406 " fill-opacity="1" fill-rule="nonzero"/></g><g clip-path="url(#2016423fb3)"><path fill="#e86aa7" d="M 233.808594 183 C 231.511719 181.15625 228.703125 178.332031 225.898438 177.285156 C 224.800781 176.878906 222.890625 176.695312 222.179688 177.621094 C 221.382812 178.660156 221.78125 181.09375 221.597656 182.347656 C 221.117188 185.550781 220.394531 188.777344 219.667969 191.929688 C 218.527344 196.84375 217.566406 201.621094 215.625 206.289062 C 213.828125 210.628906 211.585938 215.046875 209.21875 219.046875 C 207.761719 221.5 206.121094 223.804688 204.574219 226.238281 C 203.132812 228.507812 202.054688 231.011719 200.488281 233.203125 C 202.300781 235.539062 201.179688 238.761719 202.359375 241.140625 C 202.804688 242.027344 202.804688 242.914062 203.25 243.800781 C 203.25 244.6875 204.132812 246.015625 203.691406 246.464844 C 203.25 247.351562 202.359375 248.683594 201.925781 249.570312 C 201.035156 250.457031 200.589844 251.34375 199.707031 252.234375 C 198.816406 252.675781 198.816406 254.007812 197.933594 254.453125 C 199.261719 254.894531 200.148438 254.894531 201.476562 254.894531 C 203.25 254.453125 205.46875 254.007812 207.234375 254.007812 C 209.449219 254.007812 211.664062 254.007812 213.878906 254.007812 C 215.207031 254.007812 216.980469 254.453125 218.3125 253.5625 C 219.640625 252.675781 219.199219 250.898438 219.199219 249.570312 C 219.199219 248.683594 219.640625 248.238281 219.640625 247.351562 C 219.640625 246.464844 219.640625 245.574219 219.640625 244.6875 C 219.640625 240.695312 218.75 237.140625 217.867188 233.59375 C 217.867188 231.816406 217.867188 230.042969 216.539062 228.710938 C 216.09375 227.382812 215.207031 226.492188 214.765625 225.605469 C 214.324219 225.160156 212.996094 222.941406 212.996094 222.5 C 213.878906 220.722656 217.421875 222.941406 217.867188 223.386719 C 220.085938 224.714844 220.523438 226.933594 221.410156 228.710938 C 222.296875 230.484375 223.183594 232.257812 223.628906 234.035156 C 224.511719 236.253906 225.398438 238.476562 225.84375 241.140625 C 226.726562 243.355469 227.171875 246.015625 228.054688 248.238281 C 228.5 249.570312 228.941406 250.898438 229.386719 252.234375 C 228.941406 253.5625 227.613281 254.453125 226.726562 255.78125 C 225.84375 257.113281 224.511719 258.445312 223.628906 259.78125 C 224.957031 260.222656 226.726562 259.78125 228.054688 259.78125 C 229.828125 259.78125 230.71875 259.78125 232.042969 260.222656 C 233.371094 260.222656 234.257812 259.78125 235.144531 259.78125 C 237.359375 259.78125 239.570312 259.78125 241.789062 259.78125 C 242.230469 259.78125 244.449219 260.222656 245.332031 259.78125 C 245.777344 259.332031 246.21875 257.113281 246.21875 256.226562 C 246.664062 253.5625 246.664062 250.898438 247.105469 248.238281 C 247.546875 246.015625 247.988281 243.800781 246.21875 241.582031 C 244.449219 239.804688 243.113281 238.03125 241.789062 235.8125 C 240.902344 234.480469 240.015625 233.148438 239.128906 231.816406 C 238.683594 230.484375 237.359375 230.042969 237.359375 228.710938 C 236.914062 226.046875 237.359375 223.386719 238.246094 221.164062 C 239.128906 218.058594 239.570312 214.953125 240.460938 212.289062 C 241.34375 210.074219 241.34375 207.847656 241.34375 205.1875 C 241.34375 202.085938 241.789062 198.976562 240.902344 195.871094 C 240.015625 193.648438 239.570312 191.433594 238.683594 189.210938 C 236.914062 186.992188 236.027344 184.773438 233.808594 183 Z M 233.808594 183 " fill-opacity="1" fill-rule="nonzero"/></g><path fill="#e86aa7" d="M 147.84375 156.339844 C 148.304688 156.339844 148.53125 156.113281 148.992188 155.886719 C 149.90625 155.65625 151.5 155.199219 151.726562 154.285156 C 151.046875 154.054688 150.359375 154.054688 149.675781 154.054688 C 148.53125 154.054688 147.394531 153.824219 146.25 153.824219 C 145.5625 153.824219 143.96875 153.824219 144.878906 154.742188 C 145.335938 155.199219 146.25 155.425781 146.707031 155.886719 C 147.164062 156.117188 147.617188 156.34375 148.304688 156.34375 " fill-opacity="1" fill-rule="nonzero"/><path fill="#e86aa7" d="M 141.90625 160.230469 C 144.878906 159.316406 148.078125 160.003906 150.8125 160.691406 C 152.1875 160.917969 153.78125 161.375 154.929688 162.0625 C 155.382812 162.289062 156.980469 163.203125 157.210938 163.894531 C 156.296875 164.347656 154.929688 163.203125 154.238281 162.976562 C 152.414062 162.519531 150.8125 162.0625 149.21875 161.832031 C 147.617188 161.605469 145.789062 161.605469 144.1875 161.605469 C 143.738281 161.605469 142.824219 161.832031 142.367188 161.375 " fill-opacity="1" fill-rule="nonzero"/><path fill="#e86aa7" d="M 158.546875 156.292969 C 159.761719 157.128906 161.832031 157.730469 163.132812 156.75 C 163.515625 156.464844 165.675781 153.390625 164.746094 153.3125 C 162.152344 153.105469 159.679688 153.566406 157.203125 153.859375 C 157.636719 155.003906 157.457031 155.539062 158.546875 156.292969 Z M 158.546875 156.292969 " fill-opacity="1" fill-rule="nonzero"/><path fill="#e86aa7" d="M 142.480469 151.992188 C 141.941406 151.664062 141.316406 151.46875 140.746094 151.234375 C 140.367188 151.082031 139.945312 150.757812 139.550781 150.671875 C 139.085938 150.566406 139.269531 150.386719 139.019531 150.800781 C 138.855469 151.066406 138.917969 151.367188 138.90625 151.664062 C 138.859375 152.539062 139.390625 153.6875 140.207031 154.140625 C 141.359375 154.796875 143.558594 154.394531 143.984375 152.996094 C 143.417969 152.738281 142.996094 152.3125 142.480469 151.992188 Z M 142.480469 151.992188 " fill-opacity="1" fill-rule="nonzero"/></svg>