<svg xmlns="http://www.w3.org/2000/svg" xmlns:xlink="http://www.w3.org/1999/xlink" width="500" zoomAndPan="magnify" viewBox="0 0 375 374.999991" height="500" preserveAspectRatio="xMidYMid meet" version="1.0"><defs><g/><clipPath id="23e790069b"><path d="M 127.5 54.410156 L 217 54.410156 L 217 204.40625 L 127.5 204.40625 Z M 127.5 54.410156 " clip-rule="nonzero"/></clipPath><clipPath id="b67fe22776"><path d="M 197 118 L 247.5 118 L 247.5 203 L 197 203 Z M 197 118 " clip-rule="nonzero"/></clipPath></defs><rect x="-37.5" width="450" fill="#ffffff" y="-37.499999" height="449.999989" fill-opacity="1"/><rect x="-37.5" width="450" fill="#ffffff" y="-37.499999" height="449.999989" fill-opacity="1"/><rect x="-37.5" width="450" fill="#ffffff" y="-37.499999" height="449.999989" fill-opacity="1"/><g fill="#e1a3ff" fill-opacity="1"><g transform="translate(132.326882, 243.494829)"><g><path d="M 24.65625 -20.5 C 25.78125 -20.5 26.34375 -20.035156 26.34375 -19.109375 C 26.34375 -18.828125 26.285156 -18.46875 26.171875 -18.03125 L 25.421875 -15.546875 C 25.203125 -14.785156 24.925781 -14.25 24.59375 -13.9375 C 24.269531 -13.632812 23.796875 -13.484375 23.171875 -13.484375 C 22.660156 -13.484375 22.265625 -13.613281 21.984375 -13.875 C 21.710938 -14.144531 21.453125 -14.566406 21.203125 -15.140625 L 20.6875 -16.40625 C 20.519531 -16.789062 20.34375 -17.054688 20.15625 -17.203125 C 19.976562 -17.347656 19.691406 -17.421875 19.296875 -17.421875 L 18.59375 -17.421875 L 14.6875 -3.65625 C 14.625 -3.394531 14.59375 -3.160156 14.59375 -2.953125 C 14.59375 -2.703125 14.628906 -2.492188 14.703125 -2.328125 C 14.773438 -2.171875 14.878906 -2 15.015625 -1.8125 C 15.203125 -1.53125 15.296875 -1.296875 15.296875 -1.109375 C 15.296875 -1.066406 15.273438 -0.960938 15.234375 -0.796875 C 15.128906 -0.535156 14.925781 -0.34375 14.625 -0.21875 C 14.332031 -0.09375 13.910156 -0.03125 13.359375 -0.03125 L 6.125 -0.03125 C 5.695312 -0.03125 5.363281 -0.101562 5.125 -0.25 C 4.882812 -0.394531 4.765625 -0.597656 4.765625 -0.859375 C 4.765625 -0.984375 4.796875 -1.109375 4.859375 -1.234375 C 4.941406 -1.421875 5.039062 -1.554688 5.15625 -1.640625 C 5.269531 -1.734375 5.4375 -1.851562 5.65625 -2 C 5.96875 -2.1875 6.222656 -2.390625 6.421875 -2.609375 C 6.628906 -2.835938 6.804688 -3.1875 6.953125 -3.65625 L 10.828125 -17.421875 L 10.125 -17.421875 C 9.675781 -17.421875 9.304688 -17.347656 9.015625 -17.203125 C 8.734375 -17.054688 8.425781 -16.789062 8.09375 -16.40625 L 7.078125 -15.140625 C 6.609375 -14.585938 6.148438 -14.171875 5.703125 -13.890625 C 5.265625 -13.617188 4.789062 -13.484375 4.28125 -13.484375 C 3.8125 -13.484375 3.441406 -13.601562 3.171875 -13.84375 C 2.898438 -14.09375 2.765625 -14.4375 2.765625 -14.875 C 2.765625 -15.070312 2.796875 -15.296875 2.859375 -15.546875 L 3.65625 -18.34375 C 3.820312 -18.914062 4.007812 -19.347656 4.21875 -19.640625 C 4.425781 -19.941406 4.71875 -20.160156 5.09375 -20.296875 C 5.46875 -20.429688 6.003906 -20.5 6.703125 -20.5 Z M 24.65625 -20.5 "/></g></g></g><g fill="#e1a3ff" fill-opacity="1"><g transform="translate(154.920802, 243.494829)"><g><path d="M 8.09375 -16.28125 C 9.28125 -16.28125 10.148438 -16.050781 10.703125 -15.59375 C 11.265625 -15.144531 11.546875 -14.535156 11.546875 -13.765625 C 11.546875 -13.285156 11.472656 -12.832031 11.328125 -12.40625 L 8.5 -3.203125 C 8.4375 -2.953125 8.40625 -2.738281 8.40625 -2.5625 C 8.40625 -2.289062 8.457031 -2.078125 8.5625 -1.921875 C 8.664062 -1.765625 8.804688 -1.617188 8.984375 -1.484375 C 9.128906 -1.335938 9.234375 -1.21875 9.296875 -1.125 C 9.359375 -1.03125 9.367188 -0.910156 9.328125 -0.765625 C 9.222656 -0.503906 9.015625 -0.3125 8.703125 -0.1875 C 8.398438 -0.0625 7.929688 0 7.296875 0 L 0.28125 0 C -0.25 0 -0.640625 -0.0820312 -0.890625 -0.25 C -1.140625 -0.425781 -1.222656 -0.660156 -1.140625 -0.953125 C -1.054688 -1.203125 -0.835938 -1.414062 -0.484375 -1.59375 C -0.179688 -1.757812 0.0703125 -1.957031 0.28125 -2.1875 C 0.488281 -2.414062 0.660156 -2.773438 0.796875 -3.265625 L 3.484375 -12.15625 C 3.546875 -12.34375 3.578125 -12.5 3.578125 -12.625 C 3.578125 -12.84375 3.523438 -13.019531 3.421875 -13.15625 C 3.316406 -13.289062 3.160156 -13.429688 2.953125 -13.578125 C 2.753906 -13.742188 2.613281 -13.882812 2.53125 -14 C 2.445312 -14.125 2.4375 -14.289062 2.5 -14.5 C 2.613281 -14.96875 3.253906 -15.378906 4.421875 -15.734375 C 5.597656 -16.097656 6.820312 -16.28125 8.09375 -16.28125 Z M 10.15625 -23.09375 C 10.957031 -23.09375 11.625 -22.828125 12.15625 -22.296875 C 12.695312 -21.773438 12.96875 -21.132812 12.96875 -20.375 C 12.96875 -19.84375 12.828125 -19.316406 12.546875 -18.796875 C 12.265625 -18.285156 11.875 -17.867188 11.375 -17.546875 C 10.875 -17.234375 10.316406 -17.078125 9.703125 -17.078125 C 8.921875 -17.078125 8.265625 -17.335938 7.734375 -17.859375 C 7.210938 -18.390625 6.941406 -19.046875 6.921875 -19.828125 C 6.921875 -20.335938 7.054688 -20.84375 7.328125 -21.34375 C 7.597656 -21.84375 7.976562 -22.257812 8.46875 -22.59375 C 8.957031 -22.925781 9.519531 -23.09375 10.15625 -23.09375 Z M 10.15625 -23.09375 "/></g></g></g><g fill="#e1a3ff" fill-opacity="1"><g transform="translate(165.417324, 243.494829)"><g><path d="M 10.4375 -16.4375 C 13.039062 -16.4375 14.925781 -16.019531 16.09375 -15.1875 C 17.269531 -14.351562 17.859375 -13.289062 17.859375 -12 C 17.859375 -11.613281 17.816406 -11.253906 17.734375 -10.921875 C 17.421875 -9.566406 16.5625 -8.597656 15.15625 -8.015625 C 13.75 -7.429688 12.09375 -7.140625 10.1875 -7.140625 C 9.21875 -7.140625 8.316406 -7.203125 7.484375 -7.328125 C 7.460938 -6.253906 7.75 -5.503906 8.34375 -5.078125 C 8.9375 -4.648438 9.765625 -4.4375 10.828125 -4.4375 C 11.328125 -4.4375 11.800781 -4.488281 12.25 -4.59375 C 12.695312 -4.707031 13.269531 -4.878906 13.96875 -5.109375 C 14.550781 -5.316406 14.941406 -5.421875 15.140625 -5.421875 C 15.367188 -5.421875 15.484375 -5.285156 15.484375 -5.015625 C 15.503906 -4.296875 15.238281 -3.539062 14.6875 -2.75 C 14.132812 -1.957031 13.3125 -1.285156 12.21875 -0.734375 C 11.132812 -0.179688 9.820312 0.09375 8.28125 0.09375 C 6 0.09375 4.128906 -0.476562 2.671875 -1.625 C 1.222656 -2.78125 0.5 -4.457031 0.5 -6.65625 C 0.5 -7.269531 0.578125 -7.984375 0.734375 -8.796875 C 1.253906 -11.328125 2.378906 -13.234375 4.109375 -14.515625 C 5.835938 -15.796875 7.945312 -16.4375 10.4375 -16.4375 Z M 7.703125 -9.171875 C 7.773438 -9.148438 7.882812 -9.140625 8.03125 -9.140625 C 8.894531 -9.140625 9.550781 -9.539062 10 -10.34375 C 10.457031 -11.144531 10.675781 -12.035156 10.65625 -13.015625 C 10.632812 -13.585938 10.46875 -13.875 10.15625 -13.875 C 9.925781 -13.875 9.65625 -13.695312 9.34375 -13.34375 C 9.039062 -12.988281 8.738281 -12.453125 8.4375 -11.734375 C 8.144531 -11.015625 7.898438 -10.160156 7.703125 -9.171875 Z M 7.703125 -9.171875 "/></g></g></g><g fill="#e1a3ff" fill-opacity="1"><g transform="translate(181.885585, 243.494829)"><g><path d="M 19.046875 -4.25 C 19.003906 -4.164062 18.984375 -4.039062 18.984375 -3.875 C 18.984375 -3.726562 19.019531 -3.613281 19.09375 -3.53125 C 19.164062 -3.457031 19.265625 -3.421875 19.390625 -3.421875 C 19.640625 -3.421875 19.847656 -3.523438 20.015625 -3.734375 C 20.191406 -3.953125 20.3125 -4.0625 20.375 -4.0625 C 20.476562 -4.0625 20.5625 -3.992188 20.625 -3.859375 C 20.6875 -3.722656 20.71875 -3.566406 20.71875 -3.390625 C 20.738281 -2.796875 20.539062 -2.210938 20.125 -1.640625 C 19.71875 -1.078125 19.117188 -0.613281 18.328125 -0.25 C 17.535156 0.101562 16.585938 0.28125 15.484375 0.28125 C 14.128906 0.28125 13.050781 -0.03125 12.25 -0.65625 C 11.445312 -1.28125 11.035156 -2.117188 11.015625 -3.171875 C 11.015625 -3.929688 11.203125 -4.78125 11.578125 -5.71875 L 13.265625 -10.15625 C 13.367188 -10.425781 13.421875 -10.640625 13.421875 -10.796875 C 13.421875 -11.066406 13.332031 -11.28125 13.15625 -11.4375 C 12.976562 -11.59375 12.769531 -11.671875 12.53125 -11.671875 C 12.070312 -11.671875 11.640625 -11.457031 11.234375 -11.03125 C 10.828125 -10.613281 10.53125 -10.097656 10.34375 -9.484375 L 8.4375 -3.203125 C 8.351562 -2.972656 8.3125 -2.757812 8.3125 -2.5625 C 8.3125 -2.3125 8.363281 -2.109375 8.46875 -1.953125 C 8.570312 -1.796875 8.710938 -1.640625 8.890625 -1.484375 C 9.035156 -1.359375 9.140625 -1.242188 9.203125 -1.140625 C 9.265625 -1.035156 9.273438 -0.910156 9.234375 -0.765625 C 9.148438 -0.503906 8.953125 -0.3125 8.640625 -0.1875 C 8.335938 -0.0625 7.859375 0 7.203125 0 L 0.1875 0 C -0.34375 0 -0.726562 -0.0820312 -0.96875 -0.25 C -1.207031 -0.425781 -1.296875 -0.660156 -1.234375 -0.953125 C -1.148438 -1.203125 -0.929688 -1.414062 -0.578125 -1.59375 C -0.273438 -1.757812 -0.0195312 -1.957031 0.1875 -2.1875 C 0.394531 -2.414062 0.566406 -2.773438 0.703125 -3.265625 L 3.453125 -12.15625 C 3.492188 -12.257812 3.515625 -12.40625 3.515625 -12.59375 C 3.515625 -12.8125 3.46875 -12.984375 3.375 -13.109375 C 3.28125 -13.234375 3.128906 -13.390625 2.921875 -13.578125 C 2.710938 -13.742188 2.566406 -13.882812 2.484375 -14 C 2.410156 -14.125 2.40625 -14.289062 2.46875 -14.5 C 2.582031 -14.96875 3.222656 -15.378906 4.390625 -15.734375 C 5.566406 -16.097656 6.789062 -16.28125 8.0625 -16.28125 C 9.09375 -16.28125 9.90625 -16 10.5 -15.4375 C 11.09375 -14.875 11.359375 -14.085938 11.296875 -13.078125 C 12.140625 -14.285156 13.03125 -15.117188 13.96875 -15.578125 C 14.914062 -16.046875 15.941406 -16.28125 17.046875 -16.28125 C 18.304688 -16.28125 19.316406 -15.898438 20.078125 -15.140625 C 20.847656 -14.378906 21.234375 -13.394531 21.234375 -12.1875 C 21.234375 -11.550781 21.132812 -10.925781 20.9375 -10.3125 Z M 19.046875 -4.25 "/></g></g></g><g fill="#e1a3ff" fill-opacity="1"><g transform="translate(203.155868, 243.494829)"><g><path d="M 17.203125 -4.4375 C 17.160156 -4.269531 17.140625 -4.15625 17.140625 -4.09375 C 17.140625 -3.945312 17.179688 -3.832031 17.265625 -3.75 C 17.347656 -3.664062 17.453125 -3.625 17.578125 -3.625 C 17.828125 -3.625 18.035156 -3.734375 18.203125 -3.953125 C 18.378906 -4.171875 18.5 -4.28125 18.5625 -4.28125 C 18.664062 -4.28125 18.75 -4.207031 18.8125 -4.0625 C 18.875 -3.914062 18.90625 -3.753906 18.90625 -3.578125 C 18.925781 -3.015625 18.710938 -2.445312 18.265625 -1.875 C 17.828125 -1.300781 17.238281 -0.828125 16.5 -0.453125 C 15.757812 -0.0859375 14.957031 0.09375 14.09375 0.09375 C 13.070312 0.09375 12.179688 -0.0976562 11.421875 -0.484375 C 10.660156 -0.878906 10.132812 -1.394531 9.84375 -2.03125 C 9.289062 -1.3125 8.65625 -0.773438 7.9375 -0.421875 C 7.21875 -0.078125 6.457031 0.09375 5.65625 0.09375 C 4.71875 0.09375 3.84375 -0.140625 3.03125 -0.609375 C 2.21875 -1.085938 1.570312 -1.757812 1.09375 -2.625 C 0.613281 -3.5 0.375 -4.492188 0.375 -5.609375 C 0.375 -7.472656 0.726562 -9.226562 1.4375 -10.875 C 2.144531 -12.53125 3.132812 -13.863281 4.40625 -14.875 C 5.675781 -15.894531 7.117188 -16.40625 8.734375 -16.40625 C 9.617188 -16.40625 10.375 -16.300781 11 -16.09375 C 11.625 -15.894531 12.195312 -15.585938 12.71875 -15.171875 L 13.765625 -18.625 C 13.828125 -18.8125 13.859375 -18.960938 13.859375 -19.078125 C 13.859375 -19.304688 13.800781 -19.492188 13.6875 -19.640625 C 13.570312 -19.785156 13.421875 -19.925781 13.234375 -20.0625 C 13.023438 -20.226562 12.875 -20.375 12.78125 -20.5 C 12.695312 -20.625 12.6875 -20.789062 12.75 -21 C 12.863281 -21.46875 13.503906 -21.875 14.671875 -22.21875 C 15.847656 -22.570312 17.070312 -22.75 18.34375 -22.75 C 19.53125 -22.75 20.40625 -22.519531 20.96875 -22.0625 C 21.539062 -21.613281 21.828125 -21 21.828125 -20.21875 C 21.828125 -19.769531 21.753906 -19.332031 21.609375 -18.90625 Z M 12.0625 -13.078125 C 11.738281 -13.367188 11.378906 -13.515625 10.984375 -13.515625 C 10.390625 -13.515625 9.804688 -13.070312 9.234375 -12.1875 C 8.660156 -11.300781 8.195312 -10.234375 7.84375 -8.984375 C 7.5 -7.734375 7.335938 -6.609375 7.359375 -5.609375 C 7.359375 -4.472656 7.726562 -3.90625 8.46875 -3.90625 C 8.726562 -3.90625 8.953125 -4.015625 9.140625 -4.234375 C 9.328125 -4.453125 9.503906 -4.804688 9.671875 -5.296875 Z M 12.0625 -13.078125 "/></g></g></g><g fill="#e1a3ff" fill-opacity="1"><g transform="translate(222.548437, 243.494829)"><g><path d="M 10.984375 -16.28125 C 13.347656 -16.28125 15.238281 -15.84375 16.65625 -14.96875 C 18.070312 -14.101562 18.78125 -12.773438 18.78125 -10.984375 C 18.78125 -10.304688 18.65625 -9.539062 18.40625 -8.6875 L 17.140625 -4.4375 C 17.117188 -4.351562 17.109375 -4.25 17.109375 -4.125 C 17.109375 -3.789062 17.242188 -3.625 17.515625 -3.625 C 17.765625 -3.625 17.972656 -3.734375 18.140625 -3.953125 C 18.316406 -4.171875 18.4375 -4.28125 18.5 -4.28125 C 18.601562 -4.28125 18.691406 -4.207031 18.765625 -4.0625 C 18.835938 -3.914062 18.875 -3.753906 18.875 -3.578125 C 18.894531 -3.015625 18.679688 -2.445312 18.234375 -1.875 C 17.796875 -1.300781 17.207031 -0.828125 16.46875 -0.453125 C 15.726562 -0.0859375 14.914062 0.09375 14.03125 0.09375 C 12.96875 0.09375 12.054688 -0.0976562 11.296875 -0.484375 C 10.535156 -0.878906 10.015625 -1.457031 9.734375 -2.21875 C 9.109375 -1.476562 8.375 -0.90625 7.53125 -0.5 C 6.695312 -0.101562 5.796875 0.09375 4.828125 0.09375 C 3.742188 0.09375 2.832031 -0.113281 2.09375 -0.53125 C 1.351562 -0.957031 0.800781 -1.503906 0.4375 -2.171875 C 0.0820312 -2.835938 -0.09375 -3.539062 -0.09375 -4.28125 C -0.09375 -4.601562 -0.0625 -4.921875 0 -5.234375 C 0.332031 -6.648438 1.046875 -7.71875 2.140625 -8.4375 C 3.234375 -9.15625 4.539062 -9.515625 6.0625 -9.515625 C 7.769531 -9.515625 9.441406 -9.25 11.078125 -8.71875 L 11.84375 -10.75 C 12.113281 -11.601562 12.25 -12.269531 12.25 -12.75 C 12.226562 -13.238281 12.0625 -13.601562 11.75 -13.84375 C 11.445312 -14.09375 10.976562 -14.21875 10.34375 -14.21875 C 10.46875 -13.894531 10.53125 -13.554688 10.53125 -13.203125 C 10.53125 -12.441406 10.238281 -11.785156 9.65625 -11.234375 C 9.082031 -10.679688 8.265625 -10.40625 7.203125 -10.40625 C 6.191406 -10.40625 5.40625 -10.625 4.84375 -11.0625 C 4.28125 -11.507812 4 -12.0625 4 -12.71875 C 4 -13.738281 4.570312 -14.585938 5.71875 -15.265625 C 6.875 -15.941406 8.628906 -16.28125 10.984375 -16.28125 Z M 9.265625 -6.953125 C 8.691406 -6.953125 8.222656 -6.734375 7.859375 -6.296875 C 7.503906 -5.859375 7.328125 -5.378906 7.328125 -4.859375 C 7.328125 -4.535156 7.398438 -4.269531 7.546875 -4.0625 C 7.703125 -3.851562 7.925781 -3.75 8.21875 -3.75 C 8.488281 -3.75 8.78125 -3.859375 9.09375 -4.078125 C 9.414062 -4.296875 9.644531 -4.617188 9.78125 -5.046875 L 10.4375 -6.859375 C 10.082031 -6.921875 9.691406 -6.953125 9.265625 -6.953125 Z M 9.265625 -6.953125 "/></g></g></g><g fill="#e1a3ff" fill-opacity="1"><g transform="translate(62.961718, 272.07086)"><g><path d="M 17.453125 -20.5 C 18.847656 -20.5 20.0625 -20.285156 21.09375 -19.859375 C 22.132812 -19.441406 22.925781 -18.867188 23.46875 -18.140625 C 24.007812 -17.410156 24.28125 -16.578125 24.28125 -15.640625 C 24.28125 -15.109375 24.210938 -14.613281 24.078125 -14.15625 C 23.472656 -12.082031 21.757812 -10.769531 18.9375 -10.21875 C 19.914062 -9.925781 20.691406 -9.445312 21.265625 -8.78125 C 21.835938 -8.113281 22.125 -7.289062 22.125 -6.3125 C 22.125 -5.863281 22.046875 -5.328125 21.890625 -4.703125 C 21.429688 -3.109375 20.519531 -1.925781 19.15625 -1.15625 C 17.789062 -0.382812 15.859375 0 13.359375 0 L 0.546875 0 C 0.117188 0 -0.207031 -0.0703125 -0.4375 -0.21875 C -0.675781 -0.363281 -0.796875 -0.554688 -0.796875 -0.796875 C -0.796875 -0.921875 -0.765625 -1.054688 -0.703125 -1.203125 C -0.617188 -1.429688 -0.484375 -1.601562 -0.296875 -1.71875 C -0.117188 -1.84375 -0.0078125 -1.914062 0.03125 -1.9375 C 0.351562 -2.144531 0.617188 -2.351562 0.828125 -2.5625 C 1.035156 -2.78125 1.210938 -3.132812 1.359375 -3.625 L 5.109375 -16.90625 C 5.191406 -17.164062 5.234375 -17.421875 5.234375 -17.671875 C 5.234375 -17.890625 5.195312 -18.078125 5.125 -18.234375 C 5.050781 -18.390625 4.953125 -18.570312 4.828125 -18.78125 C 4.648438 -19.039062 4.5625 -19.253906 4.5625 -19.421875 C 4.5625 -19.484375 4.582031 -19.597656 4.625 -19.765625 C 4.695312 -20.023438 4.875 -20.210938 5.15625 -20.328125 C 5.4375 -20.441406 5.863281 -20.5 6.4375 -20.5 Z M 16.0625 -14.875 C 16.207031 -15.320312 16.28125 -15.738281 16.28125 -16.125 C 16.28125 -17.195312 15.675781 -17.734375 14.46875 -17.734375 L 13.078125 -17.734375 L 11.453125 -11.96875 L 12.8125 -11.96875 C 13.664062 -11.96875 14.34375 -12.175781 14.84375 -12.59375 C 15.351562 -13.019531 15.757812 -13.78125 16.0625 -14.875 Z M 13.828125 -5.8125 C 13.960938 -6.3125 14.03125 -6.765625 14.03125 -7.171875 C 14.03125 -8.273438 13.394531 -8.828125 12.125 -8.828125 L 10.59375 -8.828125 L 8.828125 -2.765625 L 10.40625 -2.765625 C 11.289062 -2.765625 12 -2.984375 12.53125 -3.421875 C 13.0625 -3.867188 13.492188 -4.664062 13.828125 -5.8125 Z M 13.828125 -5.8125 "/></g></g></g><g fill="#e1a3ff" fill-opacity="1"><g transform="translate(85.617197, 272.07086)"><g><path d="M 10.984375 -16.28125 C 13.347656 -16.28125 15.238281 -15.84375 16.65625 -14.96875 C 18.070312 -14.101562 18.78125 -12.773438 18.78125 -10.984375 C 18.78125 -10.304688 18.65625 -9.539062 18.40625 -8.6875 L 17.140625 -4.4375 C 17.117188 -4.351562 17.109375 -4.25 17.109375 -4.125 C 17.109375 -3.789062 17.242188 -3.625 17.515625 -3.625 C 17.765625 -3.625 17.972656 -3.734375 18.140625 -3.953125 C 18.316406 -4.171875 18.4375 -4.28125 18.5 -4.28125 C 18.601562 -4.28125 18.691406 -4.207031 18.765625 -4.0625 C 18.835938 -3.914062 18.875 -3.753906 18.875 -3.578125 C 18.894531 -3.015625 18.679688 -2.445312 18.234375 -1.875 C 17.796875 -1.300781 17.207031 -0.828125 16.46875 -0.453125 C 15.726562 -0.0859375 14.914062 0.09375 14.03125 0.09375 C 12.96875 0.09375 12.054688 -0.0976562 11.296875 -0.484375 C 10.535156 -0.878906 10.015625 -1.457031 9.734375 -2.21875 C 9.109375 -1.476562 8.375 -0.90625 7.53125 -0.5 C 6.695312 -0.101562 5.796875 0.09375 4.828125 0.09375 C 3.742188 0.09375 2.832031 -0.113281 2.09375 -0.53125 C 1.351562 -0.957031 0.800781 -1.503906 0.4375 -2.171875 C 0.0820312 -2.835938 -0.09375 -3.539062 -0.09375 -4.28125 C -0.09375 -4.601562 -0.0625 -4.921875 0 -5.234375 C 0.332031 -6.648438 1.046875 -7.71875 2.140625 -8.4375 C 3.234375 -9.15625 4.539062 -9.515625 6.0625 -9.515625 C 7.769531 -9.515625 9.441406 -9.25 11.078125 -8.71875 L 11.84375 -10.75 C 12.113281 -11.601562 12.25 -12.269531 12.25 -12.75 C 12.226562 -13.238281 12.0625 -13.601562 11.75 -13.84375 C 11.445312 -14.09375 10.976562 -14.21875 10.34375 -14.21875 C 10.46875 -13.894531 10.53125 -13.554688 10.53125 -13.203125 C 10.53125 -12.441406 10.238281 -11.785156 9.65625 -11.234375 C 9.082031 -10.679688 8.265625 -10.40625 7.203125 -10.40625 C 6.191406 -10.40625 5.40625 -10.625 4.84375 -11.0625 C 4.28125 -11.507812 4 -12.0625 4 -12.71875 C 4 -13.738281 4.570312 -14.585938 5.71875 -15.265625 C 6.875 -15.941406 8.628906 -16.28125 10.984375 -16.28125 Z M 9.265625 -6.953125 C 8.691406 -6.953125 8.222656 -6.734375 7.859375 -6.296875 C 7.503906 -5.859375 7.328125 -5.378906 7.328125 -4.859375 C 7.328125 -4.535156 7.398438 -4.269531 7.546875 -4.0625 C 7.703125 -3.851562 7.925781 -3.75 8.21875 -3.75 C 8.488281 -3.75 8.78125 -3.859375 9.09375 -4.078125 C 9.414062 -4.296875 9.644531 -4.617188 9.78125 -5.046875 L 10.4375 -6.859375 C 10.082031 -6.921875 9.691406 -6.953125 9.265625 -6.953125 Z M 9.265625 -6.953125 "/></g></g></g><g fill="#e1a3ff" fill-opacity="1"><g transform="translate(104.97899, 272.07086)"><g><path d="M 15.109375 -16.28125 C 16.265625 -16.28125 17.1875 -15.929688 17.875 -15.234375 C 18.5625 -14.535156 18.90625 -13.675781 18.90625 -12.65625 C 18.90625 -12.257812 18.863281 -11.898438 18.78125 -11.578125 C 18.570312 -10.734375 18.179688 -10.082031 17.609375 -9.625 C 17.035156 -9.175781 16.347656 -8.953125 15.546875 -8.953125 C 14.765625 -8.953125 14.171875 -9.132812 13.765625 -9.5 C 13.367188 -9.875 13.019531 -10.367188 12.71875 -10.984375 C 12.550781 -11.335938 12.394531 -11.59375 12.25 -11.75 C 12.101562 -11.914062 11.941406 -12 11.765625 -12 C 11.554688 -12 11.375 -11.914062 11.21875 -11.75 C 11.0625 -11.59375 10.921875 -11.304688 10.796875 -10.890625 L 8.4375 -3.203125 C 8.394531 -3.097656 8.375 -2.941406 8.375 -2.734375 C 8.375 -2.472656 8.445312 -2.253906 8.59375 -2.078125 C 8.75 -1.898438 8.960938 -1.726562 9.234375 -1.5625 C 9.484375 -1.40625 9.644531 -1.273438 9.71875 -1.171875 C 9.800781 -1.066406 9.832031 -0.929688 9.8125 -0.765625 C 9.769531 -0.503906 9.617188 -0.3125 9.359375 -0.1875 C 9.109375 -0.0625 8.675781 0 8.0625 0 L 0.1875 0 C -0.34375 0 -0.726562 -0.0820312 -0.96875 -0.25 C -1.207031 -0.425781 -1.296875 -0.660156 -1.234375 -0.953125 C -1.148438 -1.203125 -0.929688 -1.414062 -0.578125 -1.59375 C -0.273438 -1.757812 -0.0195312 -1.957031 0.1875 -2.1875 C 0.394531 -2.414062 0.566406 -2.773438 0.703125 -3.265625 L 3.453125 -12.15625 C 3.492188 -12.257812 3.515625 -12.40625 3.515625 -12.59375 C 3.515625 -12.8125 3.46875 -12.984375 3.375 -13.109375 C 3.28125 -13.234375 3.128906 -13.390625 2.921875 -13.578125 C 2.710938 -13.742188 2.566406 -13.882812 2.484375 -14 C 2.410156 -14.125 2.40625 -14.289062 2.46875 -14.5 C 2.582031 -14.96875 3.222656 -15.378906 4.390625 -15.734375 C 5.566406 -16.097656 6.789062 -16.28125 8.0625 -16.28125 C 8.90625 -16.28125 9.601562 -16.085938 10.15625 -15.703125 C 10.707031 -15.328125 11.066406 -14.789062 11.234375 -14.09375 C 12.222656 -15.550781 13.515625 -16.28125 15.109375 -16.28125 Z M 15.109375 -16.28125 "/></g></g></g><g fill="#e1a3ff" fill-opacity="1"><g transform="translate(122.032119, 272.07086)"><g><path d="M 15.109375 -16.28125 C 16.265625 -16.28125 17.1875 -15.929688 17.875 -15.234375 C 18.5625 -14.535156 18.90625 -13.675781 18.90625 -12.65625 C 18.90625 -12.257812 18.863281 -11.898438 18.78125 -11.578125 C 18.570312 -10.734375 18.179688 -10.082031 17.609375 -9.625 C 17.035156 -9.175781 16.347656 -8.953125 15.546875 -8.953125 C 14.765625 -8.953125 14.171875 -9.132812 13.765625 -9.5 C 13.367188 -9.875 13.019531 -10.367188 12.71875 -10.984375 C 12.550781 -11.335938 12.394531 -11.59375 12.25 -11.75 C 12.101562 -11.914062 11.941406 -12 11.765625 -12 C 11.554688 -12 11.375 -11.914062 11.21875 -11.75 C 11.0625 -11.59375 10.921875 -11.304688 10.796875 -10.890625 L 8.4375 -3.203125 C 8.394531 -3.097656 8.375 -2.941406 8.375 -2.734375 C 8.375 -2.472656 8.445312 -2.253906 8.59375 -2.078125 C 8.75 -1.898438 8.960938 -1.726562 9.234375 -1.5625 C 9.484375 -1.40625 9.644531 -1.273438 9.71875 -1.171875 C 9.800781 -1.066406 9.832031 -0.929688 9.8125 -0.765625 C 9.769531 -0.503906 9.617188 -0.3125 9.359375 -0.1875 C 9.109375 -0.0625 8.675781 0 8.0625 0 L 0.1875 0 C -0.34375 0 -0.726562 -0.0820312 -0.96875 -0.25 C -1.207031 -0.425781 -1.296875 -0.660156 -1.234375 -0.953125 C -1.148438 -1.203125 -0.929688 -1.414062 -0.578125 -1.59375 C -0.273438 -1.757812 -0.0195312 -1.957031 0.1875 -2.1875 C 0.394531 -2.414062 0.566406 -2.773438 0.703125 -3.265625 L 3.453125 -12.15625 C 3.492188 -12.257812 3.515625 -12.40625 3.515625 -12.59375 C 3.515625 -12.8125 3.46875 -12.984375 3.375 -13.109375 C 3.28125 -13.234375 3.128906 -13.390625 2.921875 -13.578125 C 2.710938 -13.742188 2.566406 -13.882812 2.484375 -14 C 2.410156 -14.125 2.40625 -14.289062 2.46875 -14.5 C 2.582031 -14.96875 3.222656 -15.378906 4.390625 -15.734375 C 5.566406 -16.097656 6.789062 -16.28125 8.0625 -16.28125 C 8.90625 -16.28125 9.601562 -16.085938 10.15625 -15.703125 C 10.707031 -15.328125 11.066406 -14.789062 11.234375 -14.09375 C 12.222656 -15.550781 13.515625 -16.28125 15.109375 -16.28125 Z M 15.109375 -16.28125 "/></g></g></g><g fill="#e1a3ff" fill-opacity="1"><g transform="translate(139.085242, 272.07086)"><g><path d="M 8.09375 -16.28125 C 9.28125 -16.28125 10.148438 -16.050781 10.703125 -15.59375 C 11.265625 -15.144531 11.546875 -14.535156 11.546875 -13.765625 C 11.546875 -13.285156 11.472656 -12.832031 11.328125 -12.40625 L 8.5 -3.203125 C 8.4375 -2.953125 8.40625 -2.738281 8.40625 -2.5625 C 8.40625 -2.289062 8.457031 -2.078125 8.5625 -1.921875 C 8.664062 -1.765625 8.804688 -1.617188 8.984375 -1.484375 C 9.128906 -1.335938 9.234375 -1.21875 9.296875 -1.125 C 9.359375 -1.03125 9.367188 -0.910156 9.328125 -0.765625 C 9.222656 -0.503906 9.015625 -0.3125 8.703125 -0.1875 C 8.398438 -0.0625 7.929688 0 7.296875 0 L 0.28125 0 C -0.25 0 -0.640625 -0.0820312 -0.890625 -0.25 C -1.140625 -0.425781 -1.222656 -0.660156 -1.140625 -0.953125 C -1.054688 -1.203125 -0.835938 -1.414062 -0.484375 -1.59375 C -0.179688 -1.757812 0.0703125 -1.957031 0.28125 -2.1875 C 0.488281 -2.414062 0.660156 -2.773438 0.796875 -3.265625 L 3.484375 -12.15625 C 3.546875 -12.34375 3.578125 -12.5 3.578125 -12.625 C 3.578125 -12.84375 3.523438 -13.019531 3.421875 -13.15625 C 3.316406 -13.289062 3.160156 -13.429688 2.953125 -13.578125 C 2.753906 -13.742188 2.613281 -13.882812 2.53125 -14 C 2.445312 -14.125 2.4375 -14.289062 2.5 -14.5 C 2.613281 -14.96875 3.253906 -15.378906 4.421875 -15.734375 C 5.597656 -16.097656 6.820312 -16.28125 8.09375 -16.28125 Z M 10.15625 -23.09375 C 10.957031 -23.09375 11.625 -22.828125 12.15625 -22.296875 C 12.695312 -21.773438 12.96875 -21.132812 12.96875 -20.375 C 12.96875 -19.84375 12.828125 -19.316406 12.546875 -18.796875 C 12.265625 -18.285156 11.875 -17.867188 11.375 -17.546875 C 10.875 -17.234375 10.316406 -17.078125 9.703125 -17.078125 C 8.921875 -17.078125 8.265625 -17.335938 7.734375 -17.859375 C 7.210938 -18.390625 6.941406 -19.046875 6.921875 -19.828125 C 6.921875 -20.335938 7.054688 -20.84375 7.328125 -21.34375 C 7.597656 -21.84375 7.976562 -22.257812 8.46875 -22.59375 C 8.957031 -22.925781 9.519531 -23.09375 10.15625 -23.09375 Z M 10.15625 -23.09375 "/></g></g></g><g fill="#e1a3ff" fill-opacity="1"><g transform="translate(149.58176, 272.07086)"><g><path d="M 18.65625 -21.296875 C 19.3125 -21.296875 19.953125 -21.15625 20.578125 -20.875 C 21.203125 -20.601562 21.710938 -20.222656 22.109375 -19.734375 C 22.515625 -19.253906 22.71875 -18.738281 22.71875 -18.1875 C 22.71875 -16.976562 21.894531 -16.375 20.25 -16.375 C 19.78125 -16.375 19.414062 -16.410156 19.15625 -16.484375 C 18.90625 -16.554688 18.601562 -16.675781 18.25 -16.84375 C 18.1875 -16.695312 18.15625 -16.488281 18.15625 -16.21875 C 18.15625 -15.894531 18.210938 -15.503906 18.328125 -15.046875 C 18.441406 -14.597656 18.582031 -14.179688 18.75 -13.796875 C 19.175781 -13.148438 19.390625 -12.390625 19.390625 -11.515625 C 19.390625 -11.117188 19.335938 -10.644531 19.234375 -10.09375 C 18.992188 -9.03125 18.457031 -8.054688 17.625 -7.171875 C 16.789062 -6.285156 15.722656 -5.59375 14.421875 -5.09375 C 13.117188 -4.59375 11.6875 -4.34375 10.125 -4.34375 C 8.9375 -4.34375 7.816406 -4.425781 6.765625 -4.59375 C 6.460938 -4.320312 6.3125 -3.988281 6.3125 -3.59375 C 6.3125 -3.332031 6.429688 -3.113281 6.671875 -2.9375 C 6.921875 -2.757812 7.332031 -2.671875 7.90625 -2.671875 L 12.53125 -2.671875 C 14.101562 -2.671875 15.332031 -2.398438 16.21875 -1.859375 C 17.101562 -1.316406 17.546875 -0.539062 17.546875 0.46875 C 17.546875 0.832031 17.484375 1.207031 17.359375 1.59375 C 17.109375 2.394531 16.546875 3.140625 15.671875 3.828125 C 14.804688 4.515625 13.582031 5.070312 12 5.5 C 10.425781 5.9375 8.507812 6.15625 6.25 6.15625 C 4.238281 6.15625 2.535156 5.976562 1.140625 5.625 C -0.253906 5.28125 -1.296875 4.804688 -1.984375 4.203125 C -2.671875 3.597656 -3.015625 2.925781 -3.015625 2.1875 C -3.015625 2.019531 -2.972656 1.773438 -2.890625 1.453125 C -2.703125 0.847656 -2.285156 0.359375 -1.640625 -0.015625 C -0.992188 -0.390625 0.0664062 -0.640625 1.546875 -0.765625 C 1.046875 -1.242188 0.796875 -1.8125 0.796875 -2.46875 C 0.796875 -2.6875 0.828125 -2.921875 0.890625 -3.171875 C 1.222656 -4.234375 2.1875 -5.023438 3.78125 -5.546875 C 2.25 -6.378906 1.484375 -7.609375 1.484375 -9.234375 C 1.484375 -9.679688 1.539062 -10.15625 1.65625 -10.65625 C 1.90625 -11.71875 2.453125 -12.6875 3.296875 -13.5625 C 4.140625 -14.4375 5.21875 -15.128906 6.53125 -15.640625 C 7.84375 -16.148438 9.273438 -16.40625 10.828125 -16.40625 C 13.273438 -16.40625 15.195312 -16.085938 16.59375 -15.453125 C 16.28125 -15.921875 16.035156 -16.425781 15.859375 -16.96875 C 15.691406 -17.519531 15.609375 -18.019531 15.609375 -18.46875 C 15.609375 -19.25 15.859375 -19.914062 16.359375 -20.46875 C 16.859375 -21.019531 17.625 -21.296875 18.65625 -21.296875 Z M 11.96875 -10.375 C 12.300781 -11.414062 12.46875 -12.21875 12.46875 -12.78125 C 12.46875 -13.476562 12.171875 -13.828125 11.578125 -13.828125 C 11.054688 -13.828125 10.609375 -13.570312 10.234375 -13.0625 C 9.859375 -12.5625 9.472656 -11.664062 9.078125 -10.375 C 8.753906 -9.300781 8.59375 -8.488281 8.59375 -7.9375 C 8.59375 -7.257812 8.878906 -6.921875 9.453125 -6.921875 C 9.960938 -6.921875 10.410156 -7.175781 10.796875 -7.6875 C 11.191406 -8.207031 11.582031 -9.101562 11.96875 -10.375 Z M 5.84375 0.4375 C 5.269531 0.4375 4.75 0.40625 4.28125 0.34375 C 4.03125 0.644531 3.90625 1.050781 3.90625 1.5625 C 3.925781 2.082031 4.132812 2.453125 4.53125 2.671875 C 4.9375 2.898438 5.5625 3.015625 6.40625 3.015625 C 7.425781 3.015625 8.257812 2.859375 8.90625 2.546875 C 9.550781 2.242188 9.875 1.804688 9.875 1.234375 C 9.875 0.984375 9.78125 0.785156 9.59375 0.640625 C 9.414062 0.503906 9.148438 0.4375 8.796875 0.4375 Z M 5.84375 0.4375 "/></g></g></g><g fill="#e1a3ff" fill-opacity="1"><g transform="translate(168.358685, 272.07086)"><g><path d="M 18.28125 -4.25 C 18.238281 -4.082031 18.21875 -3.957031 18.21875 -3.875 C 18.21875 -3.726562 18.253906 -3.613281 18.328125 -3.53125 C 18.398438 -3.457031 18.5 -3.421875 18.625 -3.421875 C 18.863281 -3.421875 19.070312 -3.523438 19.25 -3.734375 C 19.425781 -3.953125 19.546875 -4.0625 19.609375 -4.0625 C 19.710938 -4.0625 19.800781 -3.992188 19.875 -3.859375 C 19.945312 -3.722656 19.984375 -3.566406 19.984375 -3.390625 C 20.003906 -2.816406 19.796875 -2.242188 19.359375 -1.671875 C 18.929688 -1.109375 18.328125 -0.640625 17.546875 -0.265625 C 16.765625 0.0976562 15.890625 0.28125 14.921875 0.28125 C 13.710938 0.28125 12.75 0.0351562 12.03125 -0.453125 C 11.3125 -0.953125 10.851562 -1.601562 10.65625 -2.40625 C 9.914062 -1.582031 9.097656 -0.957031 8.203125 -0.53125 C 7.304688 -0.113281 6.398438 0.09375 5.484375 0.09375 C 4.046875 0.09375 2.835938 -0.257812 1.859375 -0.96875 C 0.890625 -1.675781 0.40625 -2.664062 0.40625 -3.9375 C 0.40625 -4.507812 0.503906 -5.101562 0.703125 -5.71875 L 2.671875 -12.15625 C 2.734375 -12.34375 2.765625 -12.5 2.765625 -12.625 C 2.765625 -12.84375 2.710938 -13.019531 2.609375 -13.15625 C 2.515625 -13.289062 2.363281 -13.429688 2.15625 -13.578125 C 1.945312 -13.742188 1.800781 -13.882812 1.71875 -14 C 1.632812 -14.125 1.625 -14.289062 1.6875 -14.5 C 1.8125 -14.96875 2.457031 -15.378906 3.625 -15.734375 C 4.800781 -16.097656 6.023438 -16.28125 7.296875 -16.28125 C 8.484375 -16.28125 9.351562 -16.050781 9.90625 -15.59375 C 10.46875 -15.144531 10.75 -14.535156 10.75 -13.765625 C 10.75 -13.285156 10.675781 -12.832031 10.53125 -12.40625 L 8.59375 -6 C 8.507812 -5.769531 8.46875 -5.554688 8.46875 -5.359375 C 8.46875 -5.066406 8.546875 -4.847656 8.703125 -4.703125 C 8.867188 -4.566406 9.085938 -4.5 9.359375 -4.5 C 9.742188 -4.5 10.0625 -4.609375 10.3125 -4.828125 C 10.5625 -5.054688 10.804688 -5.4375 11.046875 -5.96875 L 12.921875 -12.15625 C 12.984375 -12.34375 13.015625 -12.5 13.015625 -12.625 C 13.015625 -12.84375 12.960938 -13.019531 12.859375 -13.15625 C 12.765625 -13.289062 12.625 -13.429688 12.4375 -13.578125 C 12.226562 -13.742188 12.082031 -13.882812 12 -14 C 11.914062 -14.125 11.90625 -14.289062 11.96875 -14.5 C 12.070312 -14.96875 12.707031 -15.378906 13.875 -15.734375 C 15.050781 -16.097656 16.273438 -16.28125 17.546875 -16.28125 C 18.734375 -16.28125 19.609375 -16.050781 20.171875 -15.59375 C 20.742188 -15.144531 21.03125 -14.546875 21.03125 -13.796875 C 21.03125 -13.398438 20.945312 -12.9375 20.78125 -12.40625 Z M 18.28125 -4.25 "/></g></g></g><g fill="#e1a3ff" fill-opacity="1"><g transform="translate(188.705506, 272.07086)"><g><path d="M 8.09375 -16.28125 C 9.28125 -16.28125 10.148438 -16.050781 10.703125 -15.59375 C 11.265625 -15.144531 11.546875 -14.535156 11.546875 -13.765625 C 11.546875 -13.285156 11.472656 -12.832031 11.328125 -12.40625 L 8.5 -3.203125 C 8.4375 -2.953125 8.40625 -2.738281 8.40625 -2.5625 C 8.40625 -2.289062 8.457031 -2.078125 8.5625 -1.921875 C 8.664062 -1.765625 8.804688 -1.617188 8.984375 -1.484375 C 9.128906 -1.335938 9.234375 -1.21875 9.296875 -1.125 C 9.359375 -1.03125 9.367188 -0.910156 9.328125 -0.765625 C 9.222656 -0.503906 9.015625 -0.3125 8.703125 -0.1875 C 8.398438 -0.0625 7.929688 0 7.296875 0 L 0.28125 0 C -0.25 0 -0.640625 -0.0820312 -0.890625 -0.25 C -1.140625 -0.425781 -1.222656 -0.660156 -1.140625 -0.953125 C -1.054688 -1.203125 -0.835938 -1.414062 -0.484375 -1.59375 C -0.179688 -1.757812 0.0703125 -1.957031 0.28125 -2.1875 C 0.488281 -2.414062 0.660156 -2.773438 0.796875 -3.265625 L 3.484375 -12.15625 C 3.546875 -12.34375 3.578125 -12.5 3.578125 -12.625 C 3.578125 -12.84375 3.523438 -13.019531 3.421875 -13.15625 C 3.316406 -13.289062 3.160156 -13.429688 2.953125 -13.578125 C 2.753906 -13.742188 2.613281 -13.882812 2.53125 -14 C 2.445312 -14.125 2.4375 -14.289062 2.5 -14.5 C 2.613281 -14.96875 3.253906 -15.378906 4.421875 -15.734375 C 5.597656 -16.097656 6.820312 -16.28125 8.09375 -16.28125 Z M 10.15625 -23.09375 C 10.957031 -23.09375 11.625 -22.828125 12.15625 -22.296875 C 12.695312 -21.773438 12.96875 -21.132812 12.96875 -20.375 C 12.96875 -19.84375 12.828125 -19.316406 12.546875 -18.796875 C 12.265625 -18.285156 11.875 -17.867188 11.375 -17.546875 C 10.875 -17.234375 10.316406 -17.078125 9.703125 -17.078125 C 8.921875 -17.078125 8.265625 -17.335938 7.734375 -17.859375 C 7.210938 -18.390625 6.941406 -19.046875 6.921875 -19.828125 C 6.921875 -20.335938 7.054688 -20.84375 7.328125 -21.34375 C 7.597656 -21.84375 7.976562 -22.257812 8.46875 -22.59375 C 8.957031 -22.925781 9.519531 -23.09375 10.15625 -23.09375 Z M 10.15625 -23.09375 "/></g></g></g><g fill="#e1a3ff" fill-opacity="1"><g transform="translate(199.202025, 272.07086)"><g><path d="M 15.109375 -16.28125 C 16.265625 -16.28125 17.1875 -15.929688 17.875 -15.234375 C 18.5625 -14.535156 18.90625 -13.675781 18.90625 -12.65625 C 18.90625 -12.257812 18.863281 -11.898438 18.78125 -11.578125 C 18.570312 -10.734375 18.179688 -10.082031 17.609375 -9.625 C 17.035156 -9.175781 16.347656 -8.953125 15.546875 -8.953125 C 14.765625 -8.953125 14.171875 -9.132812 13.765625 -9.5 C 13.367188 -9.875 13.019531 -10.367188 12.71875 -10.984375 C 12.550781 -11.335938 12.394531 -11.59375 12.25 -11.75 C 12.101562 -11.914062 11.941406 -12 11.765625 -12 C 11.554688 -12 11.375 -11.914062 11.21875 -11.75 C 11.0625 -11.59375 10.921875 -11.304688 10.796875 -10.890625 L 8.4375 -3.203125 C 8.394531 -3.097656 8.375 -2.941406 8.375 -2.734375 C 8.375 -2.472656 8.445312 -2.253906 8.59375 -2.078125 C 8.75 -1.898438 8.960938 -1.726562 9.234375 -1.5625 C 9.484375 -1.40625 9.644531 -1.273438 9.71875 -1.171875 C 9.800781 -1.066406 9.832031 -0.929688 9.8125 -0.765625 C 9.769531 -0.503906 9.617188 -0.3125 9.359375 -0.1875 C 9.109375 -0.0625 8.675781 0 8.0625 0 L 0.1875 0 C -0.34375 0 -0.726562 -0.0820312 -0.96875 -0.25 C -1.207031 -0.425781 -1.296875 -0.660156 -1.234375 -0.953125 C -1.148438 -1.203125 -0.929688 -1.414062 -0.578125 -1.59375 C -0.273438 -1.757812 -0.0195312 -1.957031 0.1875 -2.1875 C 0.394531 -2.414062 0.566406 -2.773438 0.703125 -3.265625 L 3.453125 -12.15625 C 3.492188 -12.257812 3.515625 -12.40625 3.515625 -12.59375 C 3.515625 -12.8125 3.46875 -12.984375 3.375 -13.109375 C 3.28125 -13.234375 3.128906 -13.390625 2.921875 -13.578125 C 2.710938 -13.742188 2.566406 -13.882812 2.484375 -14 C 2.410156 -14.125 2.40625 -14.289062 2.46875 -14.5 C 2.582031 -14.96875 3.222656 -15.378906 4.390625 -15.734375 C 5.566406 -16.097656 6.789062 -16.28125 8.0625 -16.28125 C 8.90625 -16.28125 9.601562 -16.085938 10.15625 -15.703125 C 10.707031 -15.328125 11.066406 -14.789062 11.234375 -14.09375 C 12.222656 -15.550781 13.515625 -16.28125 15.109375 -16.28125 Z M 15.109375 -16.28125 "/></g></g></g><g fill="#e1a3ff" fill-opacity="1"><g transform="translate(216.255148, 272.07086)"><g><path d="M 11.90625 -16.28125 C 14.695312 -16.28125 16.753906 -15.710938 18.078125 -14.578125 C 19.398438 -13.453125 20.0625 -11.976562 20.0625 -10.15625 C 20.0625 -9.539062 19.984375 -8.851562 19.828125 -8.09375 C 19.429688 -6.414062 18.695312 -4.941406 17.625 -3.671875 C 16.5625 -2.410156 15.253906 -1.4375 13.703125 -0.75 C 12.160156 -0.0625 10.488281 0.28125 8.6875 0.28125 C 5.832031 0.28125 3.722656 -0.285156 2.359375 -1.421875 C 0.992188 -2.566406 0.3125 -4.082031 0.3125 -5.96875 C 0.3125 -6.601562 0.390625 -7.3125 0.546875 -8.09375 C 0.941406 -9.695312 1.6875 -11.117188 2.78125 -12.359375 C 3.882812 -13.597656 5.226562 -14.5625 6.8125 -15.25 C 8.40625 -15.9375 10.101562 -16.28125 11.90625 -16.28125 Z M 11.8125 -13.546875 C 11.382812 -13.546875 10.929688 -13.160156 10.453125 -12.390625 C 9.972656 -11.617188 9.398438 -10.164062 8.734375 -8.03125 C 8.078125 -5.894531 7.75 -4.398438 7.75 -3.546875 C 7.75 -3.085938 7.820312 -2.78125 7.96875 -2.625 C 8.113281 -2.476562 8.3125 -2.40625 8.5625 -2.40625 C 8.988281 -2.363281 9.429688 -2.726562 9.890625 -3.5 C 10.359375 -4.28125 10.941406 -5.800781 11.640625 -8.0625 C 12.273438 -10.050781 12.59375 -11.5 12.59375 -12.40625 C 12.59375 -12.832031 12.523438 -13.128906 12.390625 -13.296875 C 12.253906 -13.460938 12.0625 -13.546875 11.8125 -13.546875 Z M 11.8125 -13.546875 "/></g></g></g><g fill="#e1a3ff" fill-opacity="1"><g transform="translate(235.678496, 272.07086)"><g><path d="M 10.125 -16.5625 C 11.832031 -16.5625 13.304688 -16.40625 14.546875 -16.09375 C 15.785156 -15.789062 16.738281 -15.359375 17.40625 -14.796875 C 18.070312 -14.242188 18.40625 -13.617188 18.40625 -12.921875 C 18.40625 -12.203125 18.125 -11.617188 17.5625 -11.171875 C 17 -10.722656 16.210938 -10.5 15.203125 -10.5 C 14.179688 -10.5 13.316406 -10.753906 12.609375 -11.265625 C 11.898438 -11.773438 11.546875 -12.421875 11.546875 -13.203125 C 11.546875 -13.472656 11.585938 -13.726562 11.671875 -13.96875 C 11.296875 -14.070312 10.96875 -14.125 10.6875 -14.125 C 10.164062 -14.125 9.734375 -14 9.390625 -13.75 C 9.054688 -13.507812 8.898438 -13.164062 8.921875 -12.71875 C 8.921875 -12.175781 9.1875 -11.71875 9.71875 -11.34375 C 10.257812 -10.976562 11.125 -10.519531 12.3125 -9.96875 C 13.34375 -9.519531 14.191406 -9.101562 14.859375 -8.71875 C 15.523438 -8.34375 16.085938 -7.867188 16.546875 -7.296875 C 17.003906 -6.722656 17.234375 -6.046875 17.234375 -5.265625 C 17.234375 -5.097656 17.191406 -4.789062 17.109375 -4.34375 C 16.785156 -2.96875 15.875 -1.878906 14.375 -1.078125 C 12.875 -0.273438 10.90625 0.125 8.46875 0.125 C 5.71875 0.125 3.535156 -0.242188 1.921875 -0.984375 C 0.304688 -1.722656 -0.5 -2.738281 -0.5 -4.03125 C -0.5 -4.914062 -0.234375 -5.582031 0.296875 -6.03125 C 0.835938 -6.476562 1.550781 -6.703125 2.4375 -6.703125 C 3.457031 -6.703125 4.332031 -6.382812 5.0625 -5.75 C 5.789062 -5.113281 6.15625 -4.304688 6.15625 -3.328125 C 6.15625 -3.054688 6.125 -2.78125 6.0625 -2.5 C 6.550781 -2.375 7.023438 -2.3125 7.484375 -2.3125 C 8.015625 -2.3125 8.453125 -2.453125 8.796875 -2.734375 C 9.148438 -3.023438 9.328125 -3.425781 9.328125 -3.9375 C 9.304688 -4.40625 9.066406 -4.804688 8.609375 -5.140625 C 8.160156 -5.484375 7.445312 -5.894531 6.46875 -6.375 C 5.539062 -6.800781 4.78125 -7.203125 4.1875 -7.578125 C 3.59375 -7.960938 3.082031 -8.441406 2.65625 -9.015625 C 2.238281 -9.585938 2.03125 -10.265625 2.03125 -11.046875 C 2.03125 -12.734375 2.734375 -14.070312 4.140625 -15.0625 C 5.546875 -16.0625 7.539062 -16.5625 10.125 -16.5625 Z M 10.125 -16.5625 "/></g></g></g><g fill="#e1a3ff" fill-opacity="1"><g transform="translate(253.162564, 272.07086)"><g><path d="M 10.984375 -16.28125 C 13.347656 -16.28125 15.238281 -15.84375 16.65625 -14.96875 C 18.070312 -14.101562 18.78125 -12.773438 18.78125 -10.984375 C 18.78125 -10.304688 18.65625 -9.539062 18.40625 -8.6875 L 17.140625 -4.4375 C 17.117188 -4.351562 17.109375 -4.25 17.109375 -4.125 C 17.109375 -3.789062 17.242188 -3.625 17.515625 -3.625 C 17.765625 -3.625 17.972656 -3.734375 18.140625 -3.953125 C 18.316406 -4.171875 18.4375 -4.28125 18.5 -4.28125 C 18.601562 -4.28125 18.691406 -4.207031 18.765625 -4.0625 C 18.835938 -3.914062 18.875 -3.753906 18.875 -3.578125 C 18.894531 -3.015625 18.679688 -2.445312 18.234375 -1.875 C 17.796875 -1.300781 17.207031 -0.828125 16.46875 -0.453125 C 15.726562 -0.0859375 14.914062 0.09375 14.03125 0.09375 C 12.96875 0.09375 12.054688 -0.0976562 11.296875 -0.484375 C 10.535156 -0.878906 10.015625 -1.457031 9.734375 -2.21875 C 9.109375 -1.476562 8.375 -0.90625 7.53125 -0.5 C 6.695312 -0.101562 5.796875 0.09375 4.828125 0.09375 C 3.742188 0.09375 2.832031 -0.113281 2.09375 -0.53125 C 1.351562 -0.957031 0.800781 -1.503906 0.4375 -2.171875 C 0.0820312 -2.835938 -0.09375 -3.539062 -0.09375 -4.28125 C -0.09375 -4.601562 -0.0625 -4.921875 0 -5.234375 C 0.332031 -6.648438 1.046875 -7.71875 2.140625 -8.4375 C 3.234375 -9.15625 4.539062 -9.515625 6.0625 -9.515625 C 7.769531 -9.515625 9.441406 -9.25 11.078125 -8.71875 L 11.84375 -10.75 C 12.113281 -11.601562 12.25 -12.269531 12.25 -12.75 C 12.226562 -13.238281 12.0625 -13.601562 11.75 -13.84375 C 11.445312 -14.09375 10.976562 -14.21875 10.34375 -14.21875 C 10.46875 -13.894531 10.53125 -13.554688 10.53125 -13.203125 C 10.53125 -12.441406 10.238281 -11.785156 9.65625 -11.234375 C 9.082031 -10.679688 8.265625 -10.40625 7.203125 -10.40625 C 6.191406 -10.40625 5.40625 -10.625 4.84375 -11.0625 C 4.28125 -11.507812 4 -12.0625 4 -12.71875 C 4 -13.738281 4.570312 -14.585938 5.71875 -15.265625 C 6.875 -15.941406 8.628906 -16.28125 10.984375 -16.28125 Z M 9.265625 -6.953125 C 8.691406 -6.953125 8.222656 -6.734375 7.859375 -6.296875 C 7.503906 -5.859375 7.328125 -5.378906 7.328125 -4.859375 C 7.328125 -4.535156 7.398438 -4.269531 7.546875 -4.0625 C 7.703125 -3.851562 7.925781 -3.75 8.21875 -3.75 C 8.488281 -3.75 8.78125 -3.859375 9.09375 -4.078125 C 9.414062 -4.296875 9.644531 -4.617188 9.78125 -5.046875 L 10.4375 -6.859375 C 10.082031 -6.921875 9.691406 -6.953125 9.265625 -6.953125 Z M 9.265625 -6.953125 "/></g></g></g><g fill="#e1a3ff" fill-opacity="1"><g transform="translate(272.524353, 272.07086)"><g><path d="M 17.203125 -4.4375 C 17.160156 -4.269531 17.140625 -4.15625 17.140625 -4.09375 C 17.140625 -3.945312 17.179688 -3.832031 17.265625 -3.75 C 17.347656 -3.664062 17.453125 -3.625 17.578125 -3.625 C 17.828125 -3.625 18.035156 -3.734375 18.203125 -3.953125 C 18.378906 -4.171875 18.5 -4.28125 18.5625 -4.28125 C 18.664062 -4.28125 18.75 -4.207031 18.8125 -4.0625 C 18.875 -3.914062 18.90625 -3.753906 18.90625 -3.578125 C 18.925781 -3.015625 18.710938 -2.445312 18.265625 -1.875 C 17.828125 -1.300781 17.238281 -0.828125 16.5 -0.453125 C 15.757812 -0.0859375 14.957031 0.09375 14.09375 0.09375 C 13.070312 0.09375 12.179688 -0.0976562 11.421875 -0.484375 C 10.660156 -0.878906 10.132812 -1.394531 9.84375 -2.03125 C 9.289062 -1.3125 8.65625 -0.773438 7.9375 -0.421875 C 7.21875 -0.078125 6.457031 0.09375 5.65625 0.09375 C 4.71875 0.09375 3.84375 -0.140625 3.03125 -0.609375 C 2.21875 -1.085938 1.570312 -1.757812 1.09375 -2.625 C 0.613281 -3.5 0.375 -4.492188 0.375 -5.609375 C 0.375 -7.472656 0.726562 -9.226562 1.4375 -10.875 C 2.144531 -12.53125 3.132812 -13.863281 4.40625 -14.875 C 5.675781 -15.894531 7.117188 -16.40625 8.734375 -16.40625 C 9.617188 -16.40625 10.375 -16.300781 11 -16.09375 C 11.625 -15.894531 12.195312 -15.585938 12.71875 -15.171875 L 13.765625 -18.625 C 13.828125 -18.8125 13.859375 -18.960938 13.859375 -19.078125 C 13.859375 -19.304688 13.800781 -19.492188 13.6875 -19.640625 C 13.570312 -19.785156 13.421875 -19.925781 13.234375 -20.0625 C 13.023438 -20.226562 12.875 -20.375 12.78125 -20.5 C 12.695312 -20.625 12.6875 -20.789062 12.75 -21 C 12.863281 -21.46875 13.503906 -21.875 14.671875 -22.21875 C 15.847656 -22.570312 17.070312 -22.75 18.34375 -22.75 C 19.53125 -22.75 20.40625 -22.519531 20.96875 -22.0625 C 21.539062 -21.613281 21.828125 -21 21.828125 -20.21875 C 21.828125 -19.769531 21.753906 -19.332031 21.609375 -18.90625 Z M 12.0625 -13.078125 C 11.738281 -13.367188 11.378906 -13.515625 10.984375 -13.515625 C 10.390625 -13.515625 9.804688 -13.070312 9.234375 -12.1875 C 8.660156 -11.300781 8.195312 -10.234375 7.84375 -8.984375 C 7.5 -7.734375 7.335938 -6.609375 7.359375 -5.609375 C 7.359375 -4.472656 7.726562 -3.90625 8.46875 -3.90625 C 8.726562 -3.90625 8.953125 -4.015625 9.140625 -4.234375 C 9.328125 -4.453125 9.503906 -4.804688 9.671875 -5.296875 Z M 12.0625 -13.078125 "/></g></g></g><g fill="#e1a3ff" fill-opacity="1"><g transform="translate(291.916923, 272.07086)"><g><path d="M 10.984375 -16.28125 C 13.347656 -16.28125 15.238281 -15.84375 16.65625 -14.96875 C 18.070312 -14.101562 18.78125 -12.773438 18.78125 -10.984375 C 18.78125 -10.304688 18.65625 -9.539062 18.40625 -8.6875 L 17.140625 -4.4375 C 17.117188 -4.351562 17.109375 -4.25 17.109375 -4.125 C 17.109375 -3.789062 17.242188 -3.625 17.515625 -3.625 C 17.765625 -3.625 17.972656 -3.734375 18.140625 -3.953125 C 18.316406 -4.171875 18.4375 -4.28125 18.5 -4.28125 C 18.601562 -4.28125 18.691406 -4.207031 18.765625 -4.0625 C 18.835938 -3.914062 18.875 -3.753906 18.875 -3.578125 C 18.894531 -3.015625 18.679688 -2.445312 18.234375 -1.875 C 17.796875 -1.300781 17.207031 -0.828125 16.46875 -0.453125 C 15.726562 -0.0859375 14.914062 0.09375 14.03125 0.09375 C 12.96875 0.09375 12.054688 -0.0976562 11.296875 -0.484375 C 10.535156 -0.878906 10.015625 -1.457031 9.734375 -2.21875 C 9.109375 -1.476562 8.375 -0.90625 7.53125 -0.5 C 6.695312 -0.101562 5.796875 0.09375 4.828125 0.09375 C 3.742188 0.09375 2.832031 -0.113281 2.09375 -0.53125 C 1.351562 -0.957031 0.800781 -1.503906 0.4375 -2.171875 C 0.0820312 -2.835938 -0.09375 -3.539062 -0.09375 -4.28125 C -0.09375 -4.601562 -0.0625 -4.921875 0 -5.234375 C 0.332031 -6.648438 1.046875 -7.71875 2.140625 -8.4375 C 3.234375 -9.15625 4.539062 -9.515625 6.0625 -9.515625 C 7.769531 -9.515625 9.441406 -9.25 11.078125 -8.71875 L 11.84375 -10.75 C 12.113281 -11.601562 12.25 -12.269531 12.25 -12.75 C 12.226562 -13.238281 12.0625 -13.601562 11.75 -13.84375 C 11.445312 -14.09375 10.976562 -14.21875 10.34375 -14.21875 C 10.46875 -13.894531 10.53125 -13.554688 10.53125 -13.203125 C 10.53125 -12.441406 10.238281 -11.785156 9.65625 -11.234375 C 9.082031 -10.679688 8.265625 -10.40625 7.203125 -10.40625 C 6.191406 -10.40625 5.40625 -10.625 4.84375 -11.0625 C 4.28125 -11.507812 4 -12.0625 4 -12.71875 C 4 -13.738281 4.570312 -14.585938 5.71875 -15.265625 C 6.875 -15.941406 8.628906 -16.28125 10.984375 -16.28125 Z M 9.265625 -6.953125 C 8.691406 -6.953125 8.222656 -6.734375 7.859375 -6.296875 C 7.503906 -5.859375 7.328125 -5.378906 7.328125 -4.859375 C 7.328125 -4.535156 7.398438 -4.269531 7.546875 -4.0625 C 7.703125 -3.851562 7.925781 -3.75 8.21875 -3.75 C 8.488281 -3.75 8.78125 -3.859375 9.09375 -4.078125 C 9.414062 -4.296875 9.644531 -4.617188 9.78125 -5.046875 L 10.4375 -6.859375 C 10.082031 -6.921875 9.691406 -6.953125 9.265625 -6.953125 Z M 9.265625 -6.953125 "/></g></g></g><g clip-path="url(#23e790069b)"><path fill="#e86aa7" d="M 144.773438 85.851562 C 143.445312 85.40625 143.007812 84.964844 143.445312 83.632812 C 143.445312 82.746094 144.332031 81.859375 144.773438 80.96875 C 145.21875 80.082031 146.105469 79.195312 146.992188 77.863281 C 149.203125 75.199219 150.980469 71.652344 152.746094 68.542969 C 154.078125 66.324219 155.40625 64.105469 156.289062 61.445312 C 157.179688 59.222656 157.625 55.226562 160.277344 54.339844 C 162.9375 53.453125 165.152344 56.5625 167.367188 57.890625 C 170.46875 59.664062 172.238281 62.773438 174.011719 65.882812 C 175.785156 68.097656 177.109375 70.761719 178.882812 73.425781 C 179.328125 74.757812 179.773438 76.085938 180.210938 76.972656 C 180.921875 78.394531 181.765625 79.726562 182.542969 81.109375 C 183.429688 82.675781 183.867188 82.792969 185.617188 83.019531 C 187.449219 83.257812 189.015625 84.144531 190.679688 84.878906 C 191.84375 85.390625 192.929688 85.464844 194.113281 85.835938 C 197.378906 86.859375 200.660156 89.902344 203.25 92.0625 C 206.347656 94.726562 208.566406 97.390625 211.222656 100.496094 C 213.441406 103.160156 214.324219 106.710938 215.207031 109.816406 C 215.648438 112.480469 216.09375 115.140625 216.09375 117.363281 C 216.09375 124.460938 214.765625 131.121094 213.441406 137.777344 C 212.550781 140.441406 212.105469 143.101562 211.222656 145.324219 C 210.78125 147.539062 209.449219 149.757812 208.566406 151.980469 C 205.90625 156.859375 203.25 162.183594 200.585938 167.066406 C 199.261719 169.289062 197.933594 171.507812 196.601562 173.722656 C 195.273438 176.386719 193.503906 178.605469 192.171875 181.269531 C 191.289062 182.605469 190.847656 183.488281 189.960938 184.378906 C 189.515625 185.265625 189.074219 185.707031 189.074219 186.597656 C 189.074219 187.925781 190.402344 189.261719 190.84375 190.589844 C 191.289062 191.921875 191.730469 193.253906 192.171875 194.582031 C 192.617188 195.917969 193.058594 197.246094 193.503906 198.132812 C 193.503906 199.019531 194.390625 200.796875 193.945312 201.242188 C 193.503906 202.128906 191.289062 202.574219 190.402344 203.015625 C 189.515625 203.015625 189.074219 203.015625 188.628906 203.015625 C 187.300781 203.460938 186.863281 203.902344 185.53125 203.902344 C 184.199219 203.902344 182.429688 204.347656 181.101562 204.347656 C 179.773438 204.347656 178.441406 204.789062 177.109375 204.789062 C 175.785156 204.789062 171.800781 205.238281 170.910156 204.347656 C 170.910156 203.902344 170.910156 202.574219 170.46875 202.128906 C 170.46875 201.6875 170.46875 200.796875 170.46875 199.910156 C 170.46875 199.019531 170.023438 197.691406 170.023438 196.804688 C 169.585938 192.363281 169.140625 188.375 169.140625 183.933594 C 169.140625 179.492188 168.695312 175.5 168.257812 171.0625 C 168.257812 169.289062 167.808594 167.953125 167.367188 166.625 C 166.925781 164.851562 166.925781 163.519531 166.925781 161.742188 C 166.925781 160.855469 166.480469 160.410156 166.925781 159.523438 C 167.367188 158.636719 167.367188 158.195312 167.808594 157.75 C 168.695312 155.53125 170.023438 153.753906 170.910156 151.980469 C 171.351562 150.648438 171.351562 149.757812 171.800781 148.871094 C 172.242188 147.984375 173.125 147.097656 173.566406 146.210938 C 174.015625 145.324219 174.015625 144.4375 174.453125 143.992188 C 174.898438 143.105469 175.34375 142.214844 175.34375 141.328125 C 172.683594 143.992188 170.023438 146.652344 168.257812 149.757812 C 166.480469 151.980469 164.710938 154.199219 163.382812 156.417969 C 162.9375 157.75 162.050781 159.523438 161.613281 160.855469 C 160.277344 159.082031 159.394531 157.308594 158.507812 155.53125 C 156.738281 153.753906 155.410156 151.539062 154.078125 149.757812 C 151.863281 146.210938 150.535156 142.65625 147.875 139.554688 C 147.4375 141.328125 148.761719 144.4375 149.203125 146.210938 C 150.089844 148.871094 150.980469 151.089844 151.863281 153.753906 C 153.195312 156.859375 155.410156 159.082031 157.179688 161.742188 C 157.625 162.628906 158.953125 163.519531 158.953125 163.960938 C 158.953125 164.851562 158.953125 165.738281 158.953125 166.179688 C 158.507812 167.515625 158.507812 169.289062 158.507812 170.617188 C 158.0625 173.28125 157.625 175.945312 157.179688 178.605469 C 157.179688 179.9375 157.179688 181.269531 157.179688 182.15625 C 157.179688 183.933594 156.738281 185.265625 156.738281 187.039062 C 156.738281 188.375 156.289062 188.816406 157.625 189.703125 C 158.953125 190.148438 159.835938 191.035156 161.167969 191.476562 C 162.050781 192.363281 162.050781 192.363281 162.050781 193.695312 C 162.050781 195.472656 162.5 197.691406 162.9375 199.464844 C 162.9375 200.355469 163.382812 202.574219 162.9375 203.460938 C 162.5 203.902344 161.613281 203.902344 161.167969 203.902344 C 159.394531 204.347656 157.625 204.347656 155.410156 204.789062 C 153.195312 204.789062 150.980469 204.789062 148.761719 204.347656 C 147.4375 204.347656 146.992188 203.019531 146.546875 202.128906 C 146.105469 200.796875 145.222656 199.464844 144.773438 198.132812 C 144.332031 197.246094 144.332031 195.917969 143.449219 195.03125 C 143.007812 193.253906 142.117188 191.921875 141.230469 190.589844 C 139.902344 187.925781 139.464844 185.265625 138.132812 183.046875 C 137.25 181.269531 136.359375 179.492188 135.917969 177.277344 C 135.285156 174.109375 133.769531 171.015625 133.324219 167.867188 C 132.835938 164.339844 132.4375 160.78125 131.875 157.269531 C 131.410156 154.339844 130.308594 151.402344 129.714844 148.425781 C 129.269531 146.210938 129.714844 143.546875 129.269531 141.328125 C 129.269531 139.109375 128.828125 137.332031 128.386719 135.113281 C 128.386719 133.339844 128.386719 131.5625 127.945312 129.789062 C 127.945312 128.011719 127.945312 126.238281 127.5 124.460938 C 127.5 123.132812 127.5 121.355469 127.5 120.023438 C 127.5 118.695312 127.5 117.808594 127.5 116.476562 C 127.5 115.140625 127.945312 114.699219 128.386719 113.8125 C 129.269531 112.480469 130.597656 111.148438 131.488281 109.816406 C 132.375 108.488281 133.261719 106.710938 134.585938 105.378906 C 135.566406 104.398438 136.371094 103.363281 137.238281 102.292969 C 137.707031 101.699219 138.613281 100.183594 139.457031 100.160156 C 139.921875 100.144531 139.738281 100.175781 139.964844 100.542969 C 140.453125 101.347656 140.703125 102.476562 141.09375 103.34375 C 141.957031 105.226562 143.28125 107.011719 144.3125 108.832031 C 145.480469 110.886719 147.058594 112.675781 148.515625 114.527344 C 149.890625 116.289062 151.011719 118.203125 152.730469 119.691406 C 153.074219 119.121094 153.855469 118.734375 154.347656 118.273438 C 155.246094 117.4375 156.289062 116.78125 157.1875 115.886719 C 158.21875 114.855469 159.207031 113.769531 160.175781 112.683594 C 162.113281 110.527344 163.992188 108.316406 166.042969 106.265625 C 166.925781 105.378906 167.808594 104.492188 169.140625 103.160156 C 169.53125 102.765625 170.042969 102.5625 170.277344 102.03125 C 170.398438 101.753906 170.59375 101.261719 170.613281 100.949219 C 170.664062 100.234375 170.476562 99.453125 170.253906 98.78125 C 169.699219 97.15625 169.796875 95.359375 169.546875 93.6875 C 169.257812 91.75 168.914062 89.796875 168.578125 87.867188 C 168.40625 86.878906 168.039062 85.882812 167.816406 84.914062 C 167.648438 84.1875 167.628906 83.476562 166.957031 83.054688 C 166.292969 82.640625 165.558594 82.773438 164.828125 82.855469 C 164.011719 82.941406 163.207031 82.941406 162.386719 83.125 C 160.644531 83.503906 158.972656 84.199219 157.367188 84.960938 C 155.410156 85.882812 153.519531 87.0625 151.894531 88.484375 C 151.308594 88.992188 150.824219 89.601562 150.152344 90.011719 C 149.722656 90.273438 149.640625 90.332031 149.320312 90.113281 C 148.90625 89.820312 148.78125 89.25 148.460938 88.871094 C 148.117188 88.46875 147.621094 88.191406 147.257812 87.824219 C 146.652344 87.214844 145.605469 86.128906 144.773438 85.851562 Z M 144.773438 85.851562 " fill-opacity="1" fill-rule="nonzero"/></g><g clip-path="url(#b67fe22776)"><path fill="#e86aa7" d="M 233.808594 124.90625 C 231.511719 123.0625 228.703125 120.242188 225.898438 119.195312 C 224.800781 118.785156 222.890625 118.605469 222.179688 119.527344 C 221.382812 120.570312 221.78125 123 221.597656 124.253906 C 221.117188 127.460938 220.394531 130.6875 219.667969 133.839844 C 218.527344 138.753906 217.566406 143.527344 215.625 148.199219 C 213.828125 152.535156 211.585938 156.953125 209.21875 160.953125 C 207.761719 163.40625 206.121094 165.710938 204.574219 168.148438 C 203.132812 170.414062 202.054688 172.921875 200.488281 175.113281 C 202.300781 177.445312 201.179688 180.671875 202.359375 183.046875 C 202.804688 183.933594 202.804688 184.820312 203.25 185.707031 C 203.25 186.597656 204.132812 187.925781 203.691406 188.375 C 203.25 189.261719 202.359375 190.589844 201.925781 191.476562 C 201.035156 192.363281 200.589844 193.253906 199.707031 194.144531 C 198.816406 194.582031 198.816406 195.917969 197.933594 196.359375 C 199.261719 196.804688 200.148438 196.804688 201.476562 196.804688 C 203.25 196.359375 205.46875 195.917969 207.234375 195.917969 C 209.449219 195.917969 211.664062 195.917969 213.878906 195.917969 C 215.207031 195.917969 216.980469 196.359375 218.3125 195.472656 C 219.640625 194.582031 219.199219 192.808594 219.199219 191.476562 C 219.199219 190.589844 219.640625 190.148438 219.640625 189.261719 C 219.640625 188.375 219.640625 187.484375 219.640625 186.597656 C 219.640625 182.605469 218.75 179.050781 217.867188 175.5 C 217.867188 173.722656 217.867188 171.949219 216.539062 170.617188 C 216.09375 169.289062 215.207031 168.398438 214.765625 167.515625 C 214.324219 167.066406 212.996094 164.851562 212.996094 164.40625 C 213.878906 162.628906 217.421875 164.851562 217.867188 165.292969 C 220.085938 166.625 220.523438 168.839844 221.410156 170.617188 C 222.296875 172.394531 223.183594 174.167969 223.628906 175.945312 C 224.511719 178.164062 225.398438 180.382812 225.84375 183.046875 C 226.726562 185.265625 227.171875 187.925781 228.054688 190.148438 C 228.5 191.476562 228.941406 192.808594 229.386719 194.144531 C 228.941406 195.472656 227.613281 196.359375 226.726562 197.691406 C 225.84375 199.019531 224.511719 200.355469 223.628906 201.6875 C 224.957031 202.132812 226.726562 201.6875 228.054688 201.6875 C 229.828125 201.6875 230.71875 201.6875 232.042969 202.132812 C 233.371094 202.132812 234.257812 201.6875 235.144531 201.6875 C 237.359375 201.6875 239.570312 201.6875 241.789062 201.6875 C 242.230469 201.6875 244.449219 202.132812 245.332031 201.6875 C 245.777344 201.242188 246.21875 199.019531 246.21875 198.132812 C 246.664062 195.472656 246.664062 192.808594 247.105469 190.148438 C 247.546875 187.925781 247.988281 185.707031 246.21875 183.492188 C 244.449219 181.714844 243.113281 179.9375 241.789062 177.722656 C 240.902344 176.386719 240.015625 175.058594 239.128906 173.722656 C 238.683594 172.394531 237.359375 171.949219 237.359375 170.617188 C 236.914062 167.953125 237.359375 165.292969 238.246094 163.070312 C 239.128906 159.96875 239.570312 156.859375 240.460938 154.199219 C 241.34375 151.980469 241.34375 149.757812 241.34375 147.097656 C 241.34375 143.992188 241.789062 140.882812 240.902344 137.777344 C 240.015625 135.558594 239.570312 133.339844 238.683594 131.121094 C 236.914062 128.902344 236.027344 126.683594 233.808594 124.90625 Z M 233.808594 124.90625 " fill-opacity="1" fill-rule="nonzero"/></g><path fill="#e86aa7" d="M 147.84375 98.25 C 148.304688 98.25 148.53125 98.023438 148.992188 97.792969 C 149.90625 97.566406 151.5 97.105469 151.726562 96.191406 C 151.046875 95.964844 150.359375 95.964844 149.675781 95.964844 C 148.53125 95.964844 147.394531 95.734375 146.25 95.734375 C 145.5625 95.734375 143.96875 95.734375 144.878906 96.648438 C 145.335938 97.105469 146.25 97.335938 146.707031 97.792969 C 147.164062 98.023438 147.617188 98.25 148.304688 98.25 " fill-opacity="1" fill-rule="nonzero"/><path fill="#e86aa7" d="M 141.90625 102.140625 C 144.878906 101.222656 148.078125 101.914062 150.8125 102.597656 C 152.1875 102.828125 153.78125 103.285156 154.929688 103.96875 C 155.382812 104.199219 156.980469 105.113281 157.210938 105.800781 C 156.296875 106.253906 154.929688 105.113281 154.238281 104.886719 C 152.414062 104.429688 150.8125 103.96875 149.21875 103.742188 C 147.617188 103.511719 145.789062 103.511719 144.1875 103.511719 C 143.738281 103.511719 142.824219 103.742188 142.367188 103.285156 " fill-opacity="1" fill-rule="nonzero"/><path fill="#e86aa7" d="M 158.546875 98.203125 C 159.761719 99.035156 161.832031 99.636719 163.132812 98.65625 C 163.515625 98.371094 165.675781 95.296875 164.746094 95.222656 C 162.152344 95.011719 159.679688 95.476562 157.203125 95.769531 C 157.636719 96.914062 157.457031 97.445312 158.546875 98.203125 Z M 158.546875 98.203125 " fill-opacity="1" fill-rule="nonzero"/><path fill="#e86aa7" d="M 142.480469 93.902344 C 141.941406 93.574219 141.316406 93.378906 140.746094 93.140625 C 140.367188 92.992188 139.945312 92.667969 139.550781 92.582031 C 139.085938 92.472656 139.269531 92.296875 139.019531 92.710938 C 138.855469 92.976562 138.917969 93.277344 138.90625 93.570312 C 138.859375 94.445312 139.390625 95.59375 140.207031 96.050781 C 141.359375 96.703125 143.558594 96.300781 143.984375 94.90625 C 143.417969 94.648438 142.996094 94.222656 142.480469 93.902344 Z M 142.480469 93.902344 " fill-opacity="1" fill-rule="nonzero"/></svg>